<svg xmlns="http://www.w3.org/2000/svg" width="51" height="36" viewBox="0 0 51 36">
    <g fill="none" fill-rule="evenodd">
        <path fill="#20B25B" d="M51 16.672L30.304 1.392a3 3 0 0 0-3.693.1L4.831 19.481A13.3 13.3 0 0 0 0 29.735v4.098a1 1 0 0 0 1.649.76l26.77-22.834 7.206 4.913H51z"/>
        <path fill="#3FC977" d="M1.68.553L27.22 24.18l8.405-7.507H51L29.233 33.448a3 3 0 0 1-3.875-.18L3.907 13.308A12.254 12.254 0 0 1 0 4.335V1.287A1 1 0 0 1 1.68.553z"/>
        <path fill="#FFF" d="M46 13c1.564 1.368 2.346 2.725 2.346 4.07 0 2.672-2.346 3.147-2.346 4.07 0 1.463 2 1.06 6-1.212l-.46-6.446L46 13z"/>
    </g>
</svg>

