<svg xmlns="http://www.w3.org/2000/svg" width="170" height="36" viewBox="0 0 170 36">
    <g fill="none" fill-rule="evenodd">
        <path fill="#000" fill-rule="nonzero" d="M66.94 9.72c.768 0 1.473.111 2.115.333a6.122 6.122 0 0 1 1.665.855c.468.348.834.732 1.098 1.152.264.42.402.822.414 1.206a.38.38 0 0 1-.117.279.361.361 0 0 1-.261.117h-2.358a.96.96 0 0 1-.405-.072 1.345 1.345 0 0 1-.315-.216 7.581 7.581 0 0 1-.171-.18 1.649 1.649 0 0 0-.333-.261 2.277 2.277 0 0 0-.54-.234 2.74 2.74 0 0 0-.792-.099c-.228 0-.447.015-.657.045-.21.03-.396.078-.558.144a1.008 1.008 0 0 0-.396.279.67.67 0 0 0-.153.45c0 .18.057.33.171.45.114.12.306.231.576.333.27.102.627.201 1.071.297.444.096.996.21 1.656.342.66.132 1.236.3 1.728.504.492.204.903.459 1.233.765.33.306.576.666.738 1.08.162.414.243.903.243 1.467 0 .612-.138 1.158-.414 1.638-.276.48-.663.891-1.161 1.233-.498.342-1.086.603-1.764.783-.678.18-1.419.27-2.223.27-.816 0-1.56-.108-2.232-.324a6.095 6.095 0 0 1-1.737-.855 4.3 4.3 0 0 1-1.143-1.197c-.276-.444-.42-.894-.432-1.35a.38.38 0 0 1 .117-.279.361.361 0 0 1 .261-.117h2.358c.168 0 .3.021.396.063.096.042.192.105.288.189.048.048.12.126.216.234.096.108.225.219.387.333.162.114.366.213.612.297.246.084.549.126.909.126.636 0 1.167-.069 1.593-.207.426-.138.639-.387.639-.747 0-.18-.078-.33-.234-.45-.156-.12-.39-.231-.702-.333a10.522 10.522 0 0 0-1.197-.297 90.336 90.336 0 0 1-1.719-.36c-1.236-.264-2.139-.705-2.709-1.323-.57-.618-.855-1.443-.855-2.475 0-.516.117-1.008.351-1.476a3.761 3.761 0 0 1 1.017-1.242c.444-.36.981-.645 1.611-.855.63-.21 1.335-.315 2.115-.315zm10.098 7.47c-.024.18-.036.39-.036.63s.012.45.036.63c.036.432.198.78.486 1.044s.672.396 1.152.396c.396 0 .699-.057.909-.171.21-.114.381-.273.513-.477.06-.096.129-.18.207-.252a.446.446 0 0 1 .315-.108h2.358c.132 0 .249.048.351.144a.4.4 0 0 1 .135.342c-.012.192-.09.474-.234.846-.144.372-.396.741-.756 1.107s-.846.684-1.458.954c-.612.27-1.392.405-2.34.405a5.969 5.969 0 0 1-1.881-.288 4.703 4.703 0 0 1-1.53-.828 4.018 4.018 0 0 1-1.044-1.305 4.105 4.105 0 0 1-.423-1.719c-.012-.18-.018-.42-.018-.72s.006-.54.018-.72a4.105 4.105 0 0 1 .423-1.719c.258-.51.606-.945 1.044-1.305.438-.36.948-.636 1.53-.828a5.969 5.969 0 0 1 1.881-.288c.948 0 1.728.135 2.34.405.612.27 1.098.588 1.458.954.36.366.612.735.756 1.107.144.372.222.654.234.846a.4.4 0 0 1-.135.342.497.497 0 0 1-.351.144H80.62a.446.446 0 0 1-.315-.108 1.222 1.222 0 0 1-.207-.252 1.397 1.397 0 0 0-.513-.477c-.21-.114-.513-.171-.909-.171-.48 0-.864.132-1.152.396-.288.264-.45.612-.486 1.044zm7.362 2.646c0-.792.303-1.446.909-1.962.606-.516 1.593-.894 2.961-1.134l2.106-.36c0-.288-.078-.525-.234-.711-.156-.186-.426-.279-.81-.279-.276 0-.489.039-.639.117-.15.078-.261.147-.333.207a.754.754 0 0 1-.306.18c-.096.024-.21.036-.342.036h-2.286a.42.42 0 0 1-.297-.108.325.325 0 0 1-.099-.288c.024-.276.144-.564.36-.864.216-.3.513-.576.891-.828a5.413 5.413 0 0 1 1.35-.63 5.524 5.524 0 0 1 1.701-.252c.732 0 1.368.09 1.908.27.54.18.987.429 1.341.747s.615.696.783 1.134c.168.438.252.921.252 1.449v5.454a.467.467 0 0 1-.144.342.467.467 0 0 1-.342.144h-2.268a.467.467 0 0 1-.342-.144.467.467 0 0 1-.144-.342v-.504c-.288.36-.645.645-1.071.855-.426.21-.987.315-1.683.315a4.07 4.07 0 0 1-1.377-.216 2.877 2.877 0 0 1-1.008-.594 2.548 2.548 0 0 1-.621-.9 2.937 2.937 0 0 1-.216-1.134zm4.104.414c.264 0 .51-.045.738-.135.228-.09.426-.213.594-.369.168-.156.3-.339.396-.549.096-.21.144-.435.144-.675l-1.656.252c-.324.06-.585.162-.783.306a.662.662 0 0 0-.297.558c0 .228.075.387.225.477.15.09.363.135.639.135zm12.762 2.43c-.348 0-.654-.036-.918-.108a3.01 3.01 0 0 1-.684-.27 2.413 2.413 0 0 1-.486-.351 3.285 3.285 0 0 1-.324-.351v3.834a.467.467 0 0 1-.144.342.467.467 0 0 1-.342.144H96.1a.467.467 0 0 1-.342-.144.467.467 0 0 1-.144-.342V13.626c0-.132.048-.246.144-.342a.467.467 0 0 1 .342-.144h2.178c.132 0 .246.048.342.144.096.096.144.21.144.342v.414c.108-.12.225-.246.351-.378a1.91 1.91 0 0 1 .468-.351c.186-.102.414-.186.684-.252.27-.066.603-.099.999-.099.54 0 1.05.081 1.53.243.48.162.9.414 1.26.756s.651.771.873 1.287c.222.516.345 1.128.369 1.836.012.18.018.423.018.729s-.006.549-.018.729c-.024.708-.147 1.32-.369 1.836a3.84 3.84 0 0 1-.873 1.287c-.36.342-.78.597-1.26.765-.48.168-.99.252-1.53.252zm.81-4.356a4.717 4.717 0 0 0 0-1.008 2.047 2.047 0 0 0-.414-1.098c-.24-.312-.642-.468-1.206-.468-.264 0-.492.042-.684.126a1.389 1.389 0 0 0-.477.333 1.628 1.628 0 0 0-.297.459c-.072.168-.12.342-.144.522-.024.18-.036.39-.036.63s.012.45.036.63c.024.18.072.354.144.522.072.168.171.321.297.459.126.138.285.249.477.333.192.084.42.126.684.126.564 0 .966-.156 1.206-.468.24-.312.378-.678.414-1.098zm7.758.522c0 .276.051.504.153.684.102.18.231.324.387.432.156.108.33.183.522.225.192.042.378.063.558.063.36 0 .645-.036.855-.108.21-.072.387-.174.531-.306.132-.108.228-.177.288-.207a.742.742 0 0 1 .306-.045h2.34c.264 0 .396.132.396.396 0 .144-.09.363-.27.657-.18.294-.459.594-.837.9-.378.306-.867.573-1.467.801-.6.228-1.314.342-2.142.342-.78 0-1.473-.111-2.079-.333a4.086 4.086 0 0 1-1.53-.963 4.05 4.05 0 0 1-.936-1.53c-.21-.6-.315-1.278-.315-2.034 0-.696.105-1.341.315-1.935.21-.594.522-1.107.936-1.539a4.354 4.354 0 0 1 1.53-1.017c.606-.246 1.299-.369 2.079-.369.876 0 1.623.147 2.241.441.618.294 1.122.675 1.512 1.143.39.468.672.993.846 1.575.174.582.261 1.161.261 1.737v.504a.467.467 0 0 1-.144.342.467.467 0 0 1-.342.144h-5.994zm1.62-3.456c-.504 0-.888.15-1.152.45-.264.3-.42.636-.468 1.008h3.24a1.862 1.862 0 0 0-.468-1.008c-.264-.3-.648-.45-1.152-.45zm11.79 4.302a.37.37 0 0 0-.135-.306c-.09-.072-.243-.132-.459-.18a10.786 10.786 0 0 0-.855-.144 30.67 30.67 0 0 1-1.323-.216c-.912-.168-1.614-.504-2.106-1.008-.492-.504-.738-1.164-.738-1.98 0-.408.102-.786.306-1.134.204-.348.489-.654.855-.918a4.288 4.288 0 0 1 1.323-.621 6.183 6.183 0 0 1 1.728-.225c.624 0 1.2.075 1.728.225.528.15.984.342 1.368.576.384.234.687.504.909.81.222.306.345.609.369.909a.4.4 0 0 1-.135.342.497.497 0 0 1-.351.144h-2.142a.504.504 0 0 1-.315-.09 5.126 5.126 0 0 0-.279-.198 1.865 1.865 0 0 0-.423-.198c-.174-.06-.417-.09-.729-.09-.276 0-.507.039-.693.117-.186.078-.279.207-.279.387 0 .132.03.234.09.306.06.072.18.129.36.171.18.042.432.087.756.135.324.048.75.114 1.278.198 1.092.18 1.887.549 2.385 1.107.498.558.747 1.197.747 1.917 0 .408-.102.789-.306 1.143a2.89 2.89 0 0 1-.9.936c-.396.27-.876.483-1.44.639-.564.156-1.206.234-1.926.234s-1.353-.081-1.899-.243c-.546-.162-1.005-.369-1.377-.621-.372-.252-.657-.528-.855-.828-.198-.3-.309-.594-.333-.882a.4.4 0 0 1 .135-.342.497.497 0 0 1 .351-.144h2.232c.132 0 .228.033.288.099a1.46 1.46 0 0 0 .648.432c.18.066.45.099.81.099.36 0 .672-.048.936-.144.264-.096.396-.234.396-.414zm9.126-.846c0 .276.06.489.18.639.12.15.318.225.594.225h1.44c.132 0 .246.048.342.144.096.096.144.21.144.342v1.818a.467.467 0 0 1-.144.342.467.467 0 0 1-.342.144h-1.71a4.627 4.627 0 0 1-1.539-.243 3.264 3.264 0 0 1-1.179-.702 3.17 3.17 0 0 1-.756-1.116 3.876 3.876 0 0 1-.27-1.485V15.93h-1.332a.467.467 0 0 1-.342-.144.467.467 0 0 1-.144-.342v-1.818c0-.132.048-.246.144-.342a.467.467 0 0 1 .342-.144h1.332v-2.934c0-.132.048-.246.144-.342a.467.467 0 0 1 .342-.144h2.268c.132 0 .246.048.342.144.096.096.144.21.144.342v2.934h2.034c.132 0 .246.048.342.144.096.096.144.21.144.342v1.818a.467.467 0 0 1-.144.342.467.467 0 0 1-.342.144h-2.034v2.916zm13.626-1.71c.012.18.018.411.018.693s-.006.513-.018.693a4.128 4.128 0 0 1-.396 1.62c-.24.504-.57.945-.99 1.323-.42.378-.927.675-1.521.891-.594.216-1.257.324-1.989.324-.732 0-1.395-.108-1.989-.324a4.587 4.587 0 0 1-1.521-.891 4.186 4.186 0 0 1-.99-1.323 4.128 4.128 0 0 1-.396-1.62 10.81 10.81 0 0 1-.018-.693c0-.282.006-.513.018-.693a3.914 3.914 0 0 1 .378-1.62c.24-.504.573-.945.999-1.323a4.82 4.82 0 0 1 1.53-.9c.594-.222 1.257-.333 1.989-.333.732 0 1.395.111 1.989.333a4.82 4.82 0 0 1 1.53.9c.426.378.756.819.99 1.323.234.504.363 1.044.387 1.62zm-6.552 1.296c.036.456.201.813.495 1.071s.681.387 1.161.387.867-.129 1.161-.387c.294-.258.459-.615.495-1.071.024-.18.036-.384.036-.612 0-.228-.012-.432-.036-.612-.036-.456-.201-.813-.495-1.071s-.681-.387-1.161-.387-.867.129-1.161.387c-.294.258-.459.615-.495 1.071-.024.18-.036.384-.036.612 0 .228.012.432.036.612zm14.778-5.292c.132 0 .246.048.342.144.096.096.144.21.144.342v1.818a.467.467 0 0 1-.144.342.467.467 0 0 1-.342.144h-1.638c-1.104 0-1.656.552-1.656 1.656v4.428a.467.467 0 0 1-.144.342.467.467 0 0 1-.342.144h-2.268a.467.467 0 0 1-.342-.144.467.467 0 0 1-.144-.342v-8.388c0-.132.048-.246.144-.342a.467.467 0 0 1 .342-.144h2.088c.132 0 .246.048.342.144.096.096.144.21.144.342v.414a3.34 3.34 0 0 1 .999-.648c.39-.168.855-.252 1.395-.252h1.08zm6.606 12.348a.95.95 0 0 1-.18.288.431.431 0 0 1-.342.144h-2.358a.417.417 0 0 1-.306-.126.417.417 0 0 1-.126-.306c0-.048.006-.09.018-.126l1.368-3.222-3.636-8.442a.399.399 0 0 1-.018-.126c0-.12.042-.222.126-.306a.417.417 0 0 1 .306-.126h2.358c.144 0 .258.048.342.144a.95.95 0 0 1 .18.288l1.998 4.68 1.98-4.68a.95.95 0 0 1 .18-.288.431.431 0 0 1 .342-.144h2.376c.12 0 .222.042.306.126a.417.417 0 0 1 .126.306c0 .048-.006.09-.018.126l-5.022 11.79z"/>
        <path fill="#20B25B" d="M51 16.672L30.304 1.392a3 3 0 0 0-3.693.1L4.831 19.481A13.3 13.3 0 0 0 0 29.735v4.098a1 1 0 0 0 1.649.76l26.77-22.834 7.206 4.913H51z"/>
        <path fill="#3FC977" d="M1.68.553L27.22 24.18l8.405-7.507H51L29.233 33.448a3 3 0 0 1-3.875-.18L3.907 13.308A12.254 12.254 0 0 1 0 4.335V1.287A1 1 0 0 1 1.68.553z"/>
        <path fill="#FFF" d="M46 13c1.564 1.368 2.346 2.725 2.346 4.07 0 2.672-2.346 3.147-2.346 4.07 0 1.463 2 1.06 6-1.212l-.46-6.446L46 13z"/>
    </g>
</svg>
